<svg width="27" height="27" viewBox="0 0 27 27" fill="currentColor" xmlns="http://www.w3.org/2000/svg">
<path d="M24 0H8C6.53333 0 5.33333 1.2 5.33333 2.66667V18.6667C5.33333 20.1333 6.53333 21.3333 8 21.3333H24C25.4667 21.3333 26.6667 20.1333 26.6667 18.6667V2.66667C26.6667 1.2 25.4667 0 24 0ZM24 16.6667C24 17.7712 23.1046 18.6667 22 18.6667H10C8.89543 18.6667 8 17.7712 8 16.6667V4.66667C8 3.5621 8.89543 2.66667 10 2.66667H22C23.1046 2.66667 24 3.5621 24 4.66667V16.6667ZM14 17.3333C15.84 17.3333 17.3333 15.84 17.3333 14V8.66667C17.3333 7.5621 18.2288 6.66667 19.3333 6.66667H20C20.7364 6.66667 21.3333 6.06971 21.3333 5.33333C21.3333 4.59695 20.7364 4 20 4H18C16.8954 4 16 4.89543 16 6V9.1957C16 10.0773 14.8816 10.6667 14 10.6667C12.16 10.6667 10.6667 12.16 10.6667 14C10.6667 15.84 12.16 17.3333 14 17.3333ZM2.66667 6.66667C2.66667 5.93029 2.06971 5.33333 1.33333 5.33333C0.596954 5.33333 0 5.93029 0 6.66667V24C0 25.4667 1.2 26.6667 2.66667 26.6667H20C20.7364 26.6667 21.3333 26.0697 21.3333 25.3333C21.3333 24.597 20.7364 24 20 24H4.66666C3.56209 24 2.66667 23.1046 2.66667 22V6.66667Z" />
</svg>
