<svg width="30" height="24" viewBox="0 0 30 24" fill="currentColor" xmlns="http://www.w3.org/2000/svg">
<path d="M26.6667 0H2.66667C1.2 0 0 1.2 0 2.66667V21.3333C0 22.8 1.2 24 2.66667 24H26.6667C28.1333 24 29.3333 22.8 29.3333 21.3333V2.66667C29.3333 1.2 28.1333 0 26.6667 0ZM26.6667 21.3333H2.66667V2.66667H26.6667V21.3333ZM9.33333 16C9.33333 13.7867 11.12 12 13.3333 12C13.8 12 14.2533 12.0933 14.6667 12.24V4H21.3333V6.66667H17.3333V16.04C17.3067 18.2267 15.5333 20 13.3333 20C11.12 20 9.33333 18.2133 9.33333 16Z" />
</svg>
